<svg width="10" height="10" viewBox="0 0 10 10" fill="none" xmlns="http://www.w3.org/2000/svg">
<path fill-rule="evenodd" clip-rule="evenodd" d="M0.686094 5.02521L1.27526 4.43604C1.35672 4.35458 1.48859 4.35458 1.57005 4.43604L3.60276 6.46875C3.68401 6.55021 3.81609 6.55021 3.89734 6.46875L8.43005 1.93604C8.51151 1.85458 8.64338 1.85458 8.72484 1.93604L9.31401 2.52521C9.35318 2.56437 9.37505 2.61729 9.37505 2.6725C9.37505 2.72792 9.35318 2.78083 9.31401 2.82L3.89734 8.23667C3.85839 8.27562 3.80526 8.2975 3.75005 8.2975C3.69484 8.2975 3.64172 8.27562 3.60276 8.23667L0.686094 5.32C0.604635 5.23854 0.604635 5.10667 0.686094 5.02521Z" fill="white"/>
</svg>
